<svg id="dashboard" xmlns="http://www.w3.org/2000/svg" width="14.329" height="14.329" viewBox="0 0 14.329 14.329">
  <path id="Path_15" data-name="Path 15" d="M5.523,4.777H1.045A1.046,1.046,0,0,1,0,3.732V1.045A1.046,1.046,0,0,1,1.045,0H5.523A1.046,1.046,0,0,1,6.568,1.045V3.732A1.046,1.046,0,0,1,5.523,4.777ZM1.045.9A.149.149,0,0,0,.9,1.045V3.732a.149.149,0,0,0,.149.149H5.523a.149.149,0,0,0,.149-.149V1.045A.149.149,0,0,0,5.523.9Zm0,0" fill="#131027"/>
  <path id="Path_16" data-name="Path 16" d="M5.523,221.691H1.045A1.046,1.046,0,0,1,0,220.646v-6.269a1.046,1.046,0,0,1,1.045-1.045H5.523a1.046,1.046,0,0,1,1.045,1.045v6.269A1.046,1.046,0,0,1,5.523,221.691Zm-4.478-7.463a.149.149,0,0,0-.149.149v6.269a.149.149,0,0,0,.149.149H5.523a.149.149,0,0,0,.149-.149v-6.269a.149.149,0,0,0-.149-.149Zm0,0" transform="translate(0 -207.361)" fill="#131027"/>
  <path id="Path_17" data-name="Path 17" d="M282.855,346.109h-4.478a1.046,1.046,0,0,1-1.045-1.045v-2.687a1.046,1.046,0,0,1,1.045-1.045h4.478a1.046,1.046,0,0,1,1.045,1.045v2.687A1.046,1.046,0,0,1,282.855,346.109Zm-4.478-3.881a.149.149,0,0,0-.149.149v2.687a.149.149,0,0,0,.149.149h4.478a.149.149,0,0,0,.149-.149v-2.687a.149.149,0,0,0-.149-.149Zm0,0" transform="translate(-269.57 -331.779)" fill="#131027"/>
  <path id="Path_18" data-name="Path 18" d="M282.855,8.359h-4.478a1.046,1.046,0,0,1-1.045-1.045V1.045A1.046,1.046,0,0,1,278.377,0h4.478A1.046,1.046,0,0,1,283.9,1.045V7.314A1.046,1.046,0,0,1,282.855,8.359ZM278.377.9a.149.149,0,0,0-.149.149V7.314a.149.149,0,0,0,.149.149h4.478A.149.149,0,0,0,283,7.314V1.045A.149.149,0,0,0,282.855.9Zm0,0" transform="translate(-269.57)" fill="#131027"/>
</svg>
