<svg xmlns="http://www.w3.org/2000/svg" width="12.203" height="15.533" viewBox="0 0 12.203 15.533">
  <g id="list_1_" data-name="list (1)" transform="translate(-47.037)">
    <g id="Group_3118" data-name="Group 3118" transform="translate(47.037 0)">
      <g id="Group_3117" data-name="Group 3117" transform="translate(0 0)">
        <path id="Path_2138" data-name="Path 2138" d="M57.687,2.035H56.282V1.407c0-.2-.222-.3-.425-.3H54.766A1.654,1.654,0,0,0,53.12,0a1.683,1.683,0,0,0-1.646,1.109H50.4c-.2,0-.407.092-.407.3v.629H48.59a1.572,1.572,0,0,0-1.553,1.5V14.128a1.488,1.488,0,0,0,1.553,1.405h9.1a1.488,1.488,0,0,0,1.553-1.405V3.533A1.572,1.572,0,0,0,57.687,2.035ZM50.735,1.85h1.017a.407.407,0,0,0,.351-.333A1.072,1.072,0,0,1,53.12.686a1.054,1.054,0,0,1,1,.832.407.407,0,0,0,.37.333h1.054V3.33H50.735ZM58.5,14.128a.75.75,0,0,1-.814.666h-9.1a.75.75,0,0,1-.814-.666V3.533a.832.832,0,0,1,.814-.758H50v.943a.388.388,0,0,0,.407.351h5.455a.407.407,0,0,0,.425-.351V2.775h1.405a.832.832,0,0,1,.814.758V14.128Z" transform="translate(-47.037 0)" fill="#131027"/>
        <path id="Path_2139" data-name="Path 2139" d="M102.206,230.427a.37.37,0,0,0-.518-.018l-1.183,1.128-.5-.518a.37.37,0,0,0-.518-.018.388.388,0,0,0,0,.536l.758.777a.333.333,0,0,0,.259.111.37.37,0,0,0,.259-.111l1.442-1.368a.351.351,0,0,0,.021-.5Z" transform="translate(-97.528 -222.16)" fill="#131027"/>
        <path id="Path_2140" data-name="Path 2140" d="M203.171,256.034h-4.253a.37.37,0,1,0,0,.74h4.253a.37.37,0,0,0,0-.74Z" transform="translate(-193.186 -246.973)" fill="#131027"/>
        <path id="Path_2141" data-name="Path 2141" d="M102.206,146.835a.37.37,0,0,0-.518-.018l-1.183,1.128-.5-.518a.37.37,0,0,0-.518-.018.388.388,0,0,0,0,.536l.758.777a.333.333,0,0,0,.259.111.37.37,0,0,0,.259-.111l1.442-1.368a.351.351,0,0,0,.021-.5Z" transform="translate(-97.528 -141.527)" fill="#131027"/>
        <path id="Path_2142" data-name="Path 2142" d="M203.171,172.442h-4.253a.37.37,0,1,0,0,.74h4.253a.37.37,0,0,0,0-.74Z" transform="translate(-193.186 -166.339)" fill="#131027"/>
        <path id="Path_2143" data-name="Path 2143" d="M102.206,314.018a.37.37,0,0,0-.518-.018l-1.183,1.128-.5-.518a.37.37,0,0,0-.518-.018.388.388,0,0,0,0,.536l.758.777a.333.333,0,0,0,.259.111.37.37,0,0,0,.259-.111l1.442-1.368a.351.351,0,0,0,.021-.5Z" transform="translate(-97.528 -302.793)" fill="#131027"/>
        <path id="Path_2144" data-name="Path 2144" d="M203.171,339.626h-4.253a.37.37,0,1,0,0,.74h4.253a.37.37,0,1,0,0-.74Z" transform="translate(-193.186 -327.606)" fill="#131027"/>
      </g>
    </g>
  </g>
</svg>
