<svg id="gear" xmlns="http://www.w3.org/2000/svg" width="15.319" height="15.319" viewBox="0 0 15.319 15.319">
  <g id="Group_4049" data-name="Group 4049">
    <g id="Group_4048" data-name="Group 4048">
      <path id="Path_10129" data-name="Path 10129" d="M14.32,5.994H13.073a5.636,5.636,0,0,0-.408-.985l.881-.881a1,1,0,0,0,0-1.414L12.6,1.772a1.024,1.024,0,0,0-1.413,0l-.881.881a5.651,5.651,0,0,0-.985-.408V1a1,1,0,0,0-1-1H6.993a1,1,0,0,0-1,1V2.246a5.662,5.662,0,0,0-.985.408l-.881-.881a1,1,0,0,0-1.413,0l-.943.942a1,1,0,0,0,0,1.413l.881.881a5.651,5.651,0,0,0-.408.985H1a1,1,0,0,0-1,1V8.326a1,1,0,0,0,1,1H2.246a5.662,5.662,0,0,0,.408.985l-.881.881a1,1,0,0,0,0,1.413l.942.943a1,1,0,0,0,1.413,0l.881-.881a5.651,5.651,0,0,0,.985.408V14.32a1,1,0,0,0,1,1H8.326a1,1,0,0,0,1-1V13.073a5.651,5.651,0,0,0,.985-.408l.881.881a1.025,1.025,0,0,0,1.413,0l.942-.942a1,1,0,0,0,0-1.413l-.881-.881a5.651,5.651,0,0,0,.408-.985H14.32a1,1,0,0,0,1-1V6.993A1,1,0,0,0,14.32,5.994Zm.333,2.331a.333.333,0,0,1-.333.333h-1.5a.333.333,0,0,0-.322.25,5.006,5.006,0,0,1-.534,1.289.333.333,0,0,0,.051.4l1.059,1.059a.334.334,0,0,1,0,.472l-.942.942a.343.343,0,0,1-.472,0L10.6,12.017a.333.333,0,0,0-.4-.051,4.988,4.988,0,0,1-1.289.534.333.333,0,0,0-.249.322v1.5a.333.333,0,0,1-.333.333H6.993a.334.334,0,0,1-.333-.333v-1.5a.333.333,0,0,0-.25-.322,4.993,4.993,0,0,1-1.289-.534.329.329,0,0,0-.169-.046.333.333,0,0,0-.236.1L3.657,13.076a.334.334,0,0,1-.472,0l-.942-.942a.333.333,0,0,1,0-.472L3.3,10.6a.333.333,0,0,0,.051-.4A5,5,0,0,1,2.82,8.908a.332.332,0,0,0-.322-.25H1a.334.334,0,0,1-.333-.333V6.993A.334.334,0,0,1,1,6.66H2.5a.333.333,0,0,0,.322-.25,4.993,4.993,0,0,1,.534-1.289.333.333,0,0,0-.051-.4L2.244,3.658a.334.334,0,0,1,0-.472l.942-.942a.334.334,0,0,1,.472,0L4.717,3.3a.332.332,0,0,0,.4.051A5,5,0,0,1,6.411,2.82.333.333,0,0,0,6.66,2.5V1A.334.334,0,0,1,6.993.666H8.326A.333.333,0,0,1,8.659,1V2.5a.333.333,0,0,0,.25.322,4.988,4.988,0,0,1,1.289.534.332.332,0,0,0,.4-.051l1.059-1.059a.342.342,0,0,1,.472,0l.942.942a.334.334,0,0,1,0,.472L12.016,4.717a.333.333,0,0,0-.051.4A5,5,0,0,1,12.5,6.411a.332.332,0,0,0,.322.25h1.5a.333.333,0,0,1,.333.333Z" fill="#131027"/>
    </g>
  </g>
  <g id="Group_4051" data-name="Group 4051" transform="translate(4.662 4.662)">
    <g id="Group_4050" data-name="Group 4050">
      <path id="Path_10130" data-name="Path 10130" d="M115,112a3,3,0,1,0,3,3A3,3,0,0,0,115,112Zm0,5.328A2.331,2.331,0,1,1,117.328,115,2.334,2.334,0,0,1,115,117.328Z" transform="translate(-112 -112)" fill="#131027"/>
    </g>
  </g>
</svg>
