<svg width="21" height="18" viewBox="0 0 21 18" fill="none" xmlns="http://www.w3.org/2000/svg">
<path d="M12.75 12C13.716 12 14.5 12.784 14.5 13.75L14.499 14.712C14.616 16.902 12.988 18.009 10.067 18.009C7.157 18.009 5.5 16.919 5.5 14.75V13.75C5.5 12.784 6.284 12 7.25 12H12.75V12ZM12.75 13.5H7.25C7.1837 13.5 7.12011 13.5263 7.07322 13.5732C7.02634 13.6201 7 13.6837 7 13.75V14.75C7 15.926 7.887 16.509 10.067 16.509C12.235 16.509 13.062 15.945 13 14.752V13.75C13 13.6837 12.9737 13.6201 12.9268 13.5732C12.8799 13.5263 12.8163 13.5 12.75 13.5ZM1.75 7H6.126C6 7.48953 5.96777 7.99848 6.031 8.5H1.75C1.6837 8.5 1.62011 8.52634 1.57322 8.57322C1.52634 8.62011 1.5 8.6837 1.5 8.75V9.75C1.5 10.926 2.387 11.509 4.567 11.509C5.029 11.509 5.43 11.483 5.774 11.432C5.20183 11.7945 4.78401 12.3559 4.601 13.008L4.567 13.009C1.657 13.009 0 11.919 0 9.75V8.75C0 7.784 0.784 7 1.75 7ZM18.25 7C19.216 7 20 7.784 20 8.75L19.999 9.712C20.116 11.902 18.488 13.009 15.567 13.009L15.398 13.007C15.2094 12.337 14.7743 11.7633 14.18 11.401C14.567 11.473 15.027 11.509 15.567 11.509C17.735 11.509 18.562 10.945 18.5 9.752V8.75C18.5 8.6837 18.4737 8.62011 18.4268 8.57322C18.3799 8.52634 18.3163 8.5 18.25 8.5H13.97C14.0319 7.99839 13.9993 7.48963 13.874 7H18.25ZM10 5C10.394 5 10.7841 5.0776 11.1481 5.22836C11.512 5.37913 11.8427 5.6001 12.1213 5.87868C12.3999 6.15726 12.6209 6.48797 12.7716 6.85195C12.9224 7.21593 13 7.60603 13 8C13 8.39397 12.9224 8.78407 12.7716 9.14805C12.6209 9.51203 12.3999 9.84274 12.1213 10.1213C11.8427 10.3999 11.512 10.6209 11.1481 10.7716C10.7841 10.9224 10.394 11 10 11C9.20435 11 8.44129 10.6839 7.87868 10.1213C7.31607 9.55871 7 8.79565 7 8C7 7.20435 7.31607 6.44129 7.87868 5.87868C8.44129 5.31607 9.20435 5 10 5V5ZM10 6.5C9.80302 6.5 9.60796 6.5388 9.42597 6.61418C9.24399 6.68956 9.07863 6.80005 8.93934 6.93934C8.80005 7.07863 8.68956 7.24399 8.61418 7.42597C8.5388 7.60796 8.5 7.80302 8.5 8C8.5 8.19698 8.5388 8.39204 8.61418 8.57403C8.68956 8.75601 8.80005 8.92137 8.93934 9.06066C9.07863 9.19995 9.24399 9.31044 9.42597 9.38582C9.60796 9.4612 9.80302 9.5 10 9.5C10.3978 9.5 10.7794 9.34196 11.0607 9.06066C11.342 8.77936 11.5 8.39782 11.5 8C11.5 7.60218 11.342 7.22064 11.0607 6.93934C10.7794 6.65804 10.3978 6.5 10 6.5ZM4.5 0C5.29565 0 6.05871 0.316071 6.62132 0.87868C7.18393 1.44129 7.5 2.20435 7.5 3C7.5 3.79565 7.18393 4.55871 6.62132 5.12132C6.05871 5.68393 5.29565 6 4.5 6C3.70435 6 2.94129 5.68393 2.37868 5.12132C1.81607 4.55871 1.5 3.79565 1.5 3C1.5 2.20435 1.81607 1.44129 2.37868 0.87868C2.94129 0.316071 3.70435 0 4.5 0V0ZM15.5 0C16.2956 0 17.0587 0.316071 17.6213 0.87868C18.1839 1.44129 18.5 2.20435 18.5 3C18.5 3.79565 18.1839 4.55871 17.6213 5.12132C17.0587 5.68393 16.2956 6 15.5 6C14.7044 6 13.9413 5.68393 13.3787 5.12132C12.8161 4.55871 12.5 3.79565 12.5 3C12.5 2.20435 12.8161 1.44129 13.3787 0.87868C13.9413 0.316071 14.7044 0 15.5 0ZM4.5 1.5C4.10218 1.5 3.72064 1.65804 3.43934 1.93934C3.15804 2.22064 3 2.60218 3 3C3 3.39782 3.15804 3.77936 3.43934 4.06066C3.72064 4.34196 4.10218 4.5 4.5 4.5C4.89782 4.5 5.27936 4.34196 5.56066 4.06066C5.84196 3.77936 6 3.39782 6 3C6 2.60218 5.84196 2.22064 5.56066 1.93934C5.27936 1.65804 4.89782 1.5 4.5 1.5ZM15.5 1.5C15.1022 1.5 14.7206 1.65804 14.4393 1.93934C14.158 2.22064 14 2.60218 14 3C14 3.39782 14.158 3.77936 14.4393 4.06066C14.7206 4.34196 15.1022 4.5 15.5 4.5C15.8978 4.5 16.2794 4.34196 16.5607 4.06066C16.842 3.77936 17 3.39782 17 3C17 2.60218 16.842 2.22064 16.5607 1.93934C16.2794 1.65804 15.8978 1.5 15.5 1.5Z" fill="black"/>
</svg>
