<svg xmlns="http://www.w3.org/2000/svg" width="15.463" height="14.513" viewBox="0 0 15.463 14.513">
  <g id="Path_10133" data-name="Path 10133" transform="translate(-4.269 -3.725)" fill="none">
    <path d="M10.126,5.026a2,2,0,0,1,3.748,0L14.463,6.6a2,2,0,0,0,1.844,1.3l1.451.022a2,2,0,0,1,1.108,3.645l-.874.6a2,2,0,0,0-.76,2.278l.381,1.142a2,2,0,0,1-2.982,2.313l-1.546-1a2,2,0,0,0-2.17,0l-1.546,1A2,2,0,0,1,6.387,15.6l.381-1.142a2,2,0,0,0-.76-2.278l-.874-.6A2,2,0,0,1,6.242,7.928l1.451-.022A2,2,0,0,0,9.537,6.6Z" stroke="none"/>
    <path d="M 12.00000095367432 4.72502326965332 C 11.83710098266602 4.72502326965332 11.28810119628906 4.771944046020508 11.06300067901611 5.375694274902344 L 10.47445106506348 6.954283714294434 C 10.03939056396484 8.121193885803223 8.953651428222656 8.887264251708984 7.708391189575195 8.905923843383789 L 6.25737190246582 8.927654266357422 C 5.580360412597656 8.937793731689453 5.365331649780273 9.472973823547363 5.315561294555664 9.636763572692871 C 5.265781402587891 9.800543785095215 5.146650314331055 10.3648738861084 5.703531265258789 10.75001335144043 L 6.577070236206055 11.35415363311768 C 7.667560577392578 12.10834407806396 8.136040687561035 13.51346397399902 7.716350555419922 14.77116394042969 L 7.335361480712891 15.91288375854492 C 7.200420379638672 16.31726455688477 7.328420639038086 16.61911392211914 7.459560394287109 16.80112457275391 C 7.653581619262695 17.07040405273438 7.97041130065918 17.23768424987793 8.286420822143555 17.23768424987793 C 8.471920967102051 17.23768424987793 8.653620719909668 17.18108367919922 8.826460838317871 17.0694637298584 L 10.37245082855225 16.07102394104004 C 10.85854053497314 15.75710391998291 11.42134094238281 15.59117317199707 11.99999141693115 15.59117317199707 C 12.57866096496582 15.59117317199707 13.14146137237549 15.75711441040039 13.62754058837891 16.0710334777832 L 15.17354106903076 17.0694637298584 C 15.34638118743896 17.18108367919922 15.52808094024658 17.23768424987793 15.71358108520508 17.23768424987793 C 16.02953147888184 17.23768424987793 16.34634017944336 17.07038497924805 16.54039001464844 16.80107498168945 C 16.67154121398926 16.61904335021973 16.799560546875 16.31719398498535 16.66464042663574 15.91288375854492 L 16.28365135192871 14.77116394042969 C 15.8639612197876 13.51346397399902 16.33244132995605 12.10834407806396 17.42293167114258 11.35415363311768 L 18.29647064208984 10.75001335144043 C 18.85335159301758 10.3648738861084 18.73422050476074 9.800543785095215 18.68444061279297 9.636763572692871 C 18.63467025756836 9.472973823547363 18.41964149475098 8.937793731689453 17.74264144897461 8.927654266357422 L 16.29158020019531 8.905923843383789 C 15.04636096954346 8.887264251708984 13.96062088012695 8.121203422546387 13.52554130554199 6.954283714294434 L 12.93699073791504 5.37568473815918 C 12.71190071105957 4.771944046020508 12.16290092468262 4.72502326965332 12.00000095367432 4.72502326965332 M 12.00000095367432 3.725027084350586 C 12.77527141571045 3.725027084350586 13.55054092407227 4.158798217773438 13.87399101257324 5.026344299316406 L 14.46254062652588 6.604944229125977 C 14.75045108795166 7.377143859863281 15.48254108428955 7.893683433532715 16.30657196044922 7.906033515930176 L 17.75761032104492 7.927763938903809 C 19.70328140258789 7.956913948059082 20.46571159362793 10.46561336517334 18.86529159545898 11.57247352600098 L 17.99175071716309 12.17661380767822 C 17.26018142700195 12.68257427215576 16.95067024230957 13.61087417602539 17.23223114013672 14.45462417602539 L 17.61322021484375 15.59634399414062 C 18.07889556884766 16.99184036254883 16.9746208190918 18.2376880645752 15.71357727050781 18.2376880645752 C 15.35453701019287 18.2376880645752 14.98288249969482 18.13674545288086 14.63102054595947 17.90950393676758 L 13.0850305557251 16.91108322143555 C 12.75479602813721 16.69780921936035 12.37739181518555 16.5911693572998 11.99999332427979 16.5911693572998 C 11.62259387969971 16.5911693572998 11.24520111083984 16.69780349731445 10.91496086120605 16.91107368469238 L 9.36898136138916 17.90950393676758 C 9.017213821411133 18.13668060302734 8.645373344421387 18.23768424987793 8.286423683166504 18.23768424987793 C 7.02525520324707 18.23768424987793 5.921070098876953 16.99195098876953 6.386781692504883 15.59634399414062 L 6.767770767211914 14.45462417602539 C 7.049331665039062 13.61087417602539 6.73982048034668 12.68257427215576 6.008251190185547 12.17661380767822 L 5.134710311889648 11.57247352600098 C 3.534290313720703 10.46561336517334 4.296720504760742 7.956913948059082 6.242391586303711 7.927763938903809 L 7.69342041015625 7.906033515930176 C 8.517460823059082 7.893683433532715 9.249550819396973 7.377143859863281 9.537450790405273 6.604944229125977 L 10.12601089477539 5.026344299316406 C 10.44946098327637 4.158798217773438 11.22473049163818 3.725027084350586 12.00000095367432 3.725027084350586 Z" stroke="none" fill="#131027"/>
  </g>
</svg>
