<?xml version="1.0" standalone="no"?>
<!DOCTYPE svg PUBLIC "-//W3C//DTD SVG 20010904//EN"
 "http://www.w3.org/TR/2001/REC-SVG-20010904/DTD/svg10.dtd">
<svg version="1.0" xmlns="http://www.w3.org/2000/svg"
 width="442.000000pt" height="458.000000pt" viewBox="0 0 442.000000 458.000000"
 preserveAspectRatio="xMidYMid meet">

<g transform="translate(0.000000,458.000000) scale(0.100000,-0.100000)"
fill="#000000" stroke="none">
<path d="M1987 4412 c-14 -15 -17 -48 -19 -193 l-3 -174 -174 -3 c-145 -2
-178 -5 -193 -19 -16 -14 -18 -34 -18 -172 0 -86 5 -163 10 -171 7 -12 44 -16
192 -20 l183 -5 2 -375 c3 -368 3 -375 24 -392 18 -15 43 -18 169 -18 126 0
151 3 169 18 21 17 21 24 24 392 l2 375 185 5 c184 5 184 5 197 30 18 34 14
313 -5 332 -9 9 -65 14 -195 18 l-182 5 -5 183 c-4 148 -8 185 -20 192 -8 5
-85 10 -171 10 -138 0 -158 -2 -172 -18z m243 -275 c0 -134 3 -178 14 -193 13
-17 31 -19 198 -24 l183 -5 0 -65 0 -65 -177 -5 c-149 -4 -181 -8 -198 -22
-19 -17 -20 -28 -20 -393 l0 -375 -70 0 -70 0 0 375 c0 362 -1 376 -20 395
-18 18 -33 20 -195 20 l-175 0 0 70 0 70 175 0 c162 0 177 2 195 20 18 18 20
33 20 195 l0 175 70 0 70 0 0 -173z"/>
<path d="M636 3830 c-43 -13 -104 -59 -127 -96 l-20 -34 -73 6 c-61 6 -80 3
-122 -15 -58 -26 -108 -71 -137 -126 l-22 -40 0 -810 c0 -908 -3 -867 74
-1029 33 -70 231 -358 454 -658 l57 -78 0 -328 c0 -280 2 -331 16 -350 l15
-22 589 0 590 0 15 24 c14 22 16 104 13 783 l-4 758 -26 96 c-29 107 -115 289
-163 347 -17 20 -54 69 -82 107 l-52 71 -3 314 c-3 288 -5 318 -22 354 -45 90
-122 138 -233 144 l-71 4 -4 142 c-3 132 -5 144 -30 187 -54 92 -140 134 -255
124 -65 -5 -72 -4 -78 14 -8 27 -70 80 -119 102 -43 20 -129 24 -180 9z m175
-149 l39 -39 2 -653 c1 -633 -1 -820 -8 -828 -1 -2 -23 7 -48 19 -54 26 -101
77 -129 139 -19 44 -20 70 -24 621 l-3 575 -25 51 c-30 60 -30 67 -9 100 24
36 62 53 118 54 43 0 53 -4 87 -39z m-350 -114 c66 -44 63 -22 69 -667 5 -582
5 -585 28 -634 31 -67 82 -127 140 -165 27 -17 125 -65 218 -107 93 -42 212
-96 264 -121 121 -56 139 -60 168 -33 36 34 48 8 -158 360 -40 68 -81 138 -90
155 -9 16 -40 70 -69 120 -42 74 -51 98 -51 138 0 59 19 98 66 134 29 22 47
27 88 27 70 0 106 -22 164 -101 51 -68 202 -266 277 -361 132 -167 149 -195
201 -319 63 -150 64 -180 62 -941 l-3 -684 -495 0 -495 1 -3 306 -2 307 -32
46 c-18 26 -125 175 -238 332 -227 314 -257 362 -291 465 l-24 70 -3 785 c-3
711 -1 789 14 828 30 79 124 107 195 59z m656 3 c61 -37 63 -48 63 -373 l0
-294 -54 -7 c-30 -3 -75 -15 -100 -26 -25 -10 -48 -16 -50 -11 -11 17 -6 704
5 718 17 20 99 16 136 -7z m324 -455 c16 -9 39 -30 49 -48 18 -29 20 -51 20
-244 0 -117 -4 -213 -8 -213 -4 0 -35 37 -69 83 -34 45 -78 98 -97 116 l-36
35 0 132 c0 116 2 134 18 143 26 15 89 13 123 -4z m-433 -835 c12 -16 22 -33
22 -37 0 -4 14 -26 30 -47 17 -22 30 -43 30 -47 0 -5 14 -31 31 -60 16 -29 27
-55 22 -59 -4 -4 -45 10 -90 30 l-81 38 0 106 c0 58 3 106 7 106 4 0 17 -13
29 -30z"/>
<path d="M3512 3825 c-52 -23 -92 -55 -113 -89 l-19 -31 -92 0 c-105 0 -127
-9 -194 -73 -59 -58 -74 -109 -74 -259 l0 -123 -63 0 c-122 0 -226 -76 -257
-190 -5 -19 -10 -168 -10 -330 l0 -296 -47 -64 c-156 -208 -195 -278 -238
-425 -39 -134 -45 -252 -45 -980 0 -512 3 -666 13 -685 l13 -25 589 -3 590 -2
18 21 c15 19 17 51 17 347 l0 325 153 214 c83 118 173 242 199 277 149 200
209 325 229 475 6 47 9 372 7 846 -3 768 -3 770 -25 810 -29 55 -79 100 -137
126 -41 18 -62 21 -120 16 l-71 -5 -30 41 c-44 61 -103 89 -189 94 -49 2 -81
-1 -104 -12z m169 -128 c50 -34 57 -64 28 -123 l-24 -49 -5 -585 -5 -585 -27
-50 c-30 -58 -108 -134 -138 -137 -11 0 -25 -1 -31 -2 -13 -1 -13 1442 0 1478
5 12 24 35 41 49 42 36 112 37 161 4z m-350 -117 c18 -10 19 -25 19 -370 0
-198 -2 -360 -4 -360 -2 0 -25 9 -50 21 -26 11 -71 22 -99 23 l-52 3 -3 297
c-3 329 -1 339 61 376 35 22 97 26 128 10z m677 -10 c64 -39 62 -11 62 -857 0
-849 0 -846 -64 -978 -18 -38 -108 -173 -200 -300 -92 -126 -202 -280 -246
-342 l-80 -112 -2 -306 -3 -305 -495 -1 -495 -1 0 714 c0 707 0 714 22 797 31
114 77 211 144 301 30 41 64 90 74 108 11 17 22 32 25 32 4 0 22 21 40 48 19
26 37 49 40 52 3 3 14 19 24 35 19 30 27 40 66 83 11 12 20 25 20 28 0 7 56
75 119 145 69 78 157 88 227 27 47 -42 70 -107 55 -158 -9 -31 -160 -304 -220
-400 -6 -8 -44 -74 -86 -147 -84 -144 -91 -176 -44 -202 24 -13 38 -8 275 99
137 62 278 128 314 145 108 54 186 158 209 276 6 32 10 269 10 596 0 476 2
546 16 573 34 66 127 90 193 50z m-1007 -450 c17 -10 19 -22 19 -144 0 -130 0
-133 -26 -157 -15 -13 -55 -62 -90 -109 -35 -47 -69 -92 -76 -100 -11 -12 -14
25 -16 198 -3 238 3 267 62 303 34 21 96 25 127 9z m349 -914 c0 -73 -4 -107
-13 -114 -11 -9 -155 -72 -165 -72 -5 0 87 171 108 200 11 15 20 34 20 41 0
14 29 49 42 49 4 0 8 -47 8 -104z"/>
</g>
</svg>
