<?xml version="1.0" standalone="no"?>
<!DOCTYPE svg PUBLIC "-//W3C//DTD SVG 20010904//EN"
 "http://www.w3.org/TR/2001/REC-SVG-20010904/DTD/svg10.dtd">
<svg version="1.0" xmlns="http://www.w3.org/2000/svg"
 width="256.000000pt" height="256.000000pt" viewBox="0 0 256.000000 256.000000"
 preserveAspectRatio="xMidYMid meet">

<g transform="translate(0.000000,256.000000) scale(0.100000,-0.100000)"
fill="#000000" stroke="none">
<path d="M1182 2550 c-208 -29 -383 -154 -478 -342 -114 -225 -68 -416 123
-521 122 -66 365 -99 580 -79 147 14 223 32 308 72 165 78 229 209 191 390
-47 223 -224 408 -446 464 -75 19 -202 26 -278 16z m258 -116 c142 -40 262
-138 324 -265 146 -301 -22 -461 -484 -461 -244 0 -386 37 -471 122 -57 57
-73 111 -58 204 23 143 142 297 280 365 121 59 275 72 409 35z"/>
<path d="M956 2065 c-85 -30 -127 -111 -71 -137 21 -9 30 -7 65 17 50 35 80
35 126 0 35 -26 39 -27 63 -14 42 23 39 61 -6 98 -36 30 -89 51 -123 51 -8 -1
-32 -7 -54 -15z"/>
<path d="M1486 2065 c-48 -17 -96 -62 -96 -90 0 -23 28 -55 49 -55 7 0 27 11
45 25 42 32 80 32 128 -2 33 -22 42 -24 63 -15 55 25 17 101 -67 136 -45 19
-71 19 -122 1z"/>
<path d="M570 1545 c-25 -30 33 -429 100 -690 111 -435 280 -726 477 -821 82
-40 184 -40 266 0 211 102 393 436 501 923 40 181 74 404 78 512 4 93 -5 101
-89 83 -348 -77 -930 -80 -1214 -7 -72 19 -103 19 -119 0z m285 -132 c171 -24
681 -24 850 0 67 9 136 20 154 23 l33 7 -7 -59 c-4 -32 -18 -124 -31 -204
-102 -606 -320 -1038 -542 -1074 -55 -8 -131 17 -190 63 -198 157 -381 655
-447 1215 l-7 59 33 -7 c18 -3 87 -14 154 -23z"/>
<path d="M878 1269 c-21 -12 -24 -59 -6 -77 19 -19 66 -15 78 7 14 28 13 38
-10 61 -22 22 -37 24 -62 9z"/>
<path d="M1087 1262 c-34 -37 -15 -82 33 -82 49 0 68 51 32 83 -24 22 -45 21
-65 -1z"/>
<path d="M1300 1260 c-23 -23 -24 -33 -10 -61 12 -22 59 -26 78 -7 19 19 15
66 -7 78 -28 14 -38 13 -61 -10z"/>
<path d="M382 1368 c-18 -18 -15 -70 13 -234 62 -360 149 -639 272 -876 63
-121 84 -148 116 -148 54 0 61 47 17 118 -133 217 -252 587 -310 967 -27 173
-31 185 -68 185 -15 0 -33 -5 -40 -12z"/>
<path d="M2102 1363 c-5 -10 -15 -58 -21 -108 -34 -242 -103 -523 -177 -722
-38 -101 -122 -278 -155 -325 -34 -47 -20 -98 28 -98 32 0 53 27 116 148 124
238 211 520 272 879 28 165 31 213 13 231 -18 18 -66 15 -76 -5z"/>
</g>
</svg>
