ic_loading.svg<svg xmlns="http://www.w3.org/2000/svg" width="242.205" height="69.642" viewBox="0 0 242.205 69.642">
  <g id="Group_5755" data-name="Group 5755" transform="translate(-115.939 -364.465)">
    <g id="Group_3492" data-name="Group 3492" transform="translate(115.939 364.465)">
      <path id="Path_7012" data-name="Path 7012" d="M391.115,129.553h0a6.636,6.636,0,0,1-6.617-6.617h0a6.637,6.637,0,0,1,6.617-6.617h0a6.637,6.637,0,0,1,6.617,6.617h0A6.636,6.636,0,0,1,391.115,129.553Z" transform="translate(-371.087 -95.057)" fill="#2851a0"/>
      <path id="Path_7013" data-name="Path 7013" d="M462.12,86.713a19.206,19.206,0,0,0-19.149-19.149h0a19.2,19.2,0,0,0-19.149,19.149h0V114.7s38.294-4.264,38.3-27.979v0Z" transform="translate(-393.262 -67.564)" fill="#2851a0"/>
      <path id="Path_7014" data-name="Path 7014" d="M353.746,171.533v0h0a13.362,13.362,0,0,0,13.323,13.323h0a13.362,13.362,0,0,0,13.322-13.323h0V152.068S353.749,155.034,353.746,171.533Zm13.323,3.5a3.5,3.5,0,1,1,3.5-3.5A3.512,3.512,0,0,1,367.069,175.037Z" transform="translate(-353.746 -115.217)" fill="#2851a0"/>
    </g>
    <text id="Bankeiro" transform="translate(204.144 416.085)" fill="#2851a0" font-size="35" font-family="Poppins-Medium, Poppins" font-weight="500"><tspan x="0" y="0">Bankeiro</tspan></text>
  </g>
</svg>
