<svg xmlns="http://www.w3.org/2000/svg" width="149.998" height="194.819" viewBox="0 0 149.998 194.819">
  <g id="Grupo_8491" data-name="Grupo 8491" transform="translate(-113 -29.676)">
    <g id="Grupo_6527" data-name="Grupo 6527" transform="translate(763.646 -123.783)">
      <path id="Caminho_12505" data-name="Caminho 12505" d="M-559.9,317.891c-4.623-4.989-12.989-10.07-24.333-14.169a150.1,150.1,0,0,0-36.609-7.827v-.707c23.521-2.019,37.793-19.928,46.963-46.044,9.2-26.2,13.271-60.679,16.385-95.684h.71c3.113,35.005,7.183,69.479,16.384,95.684,9.17,26.116,23.446,44.026,46.967,46.044v.707a150.138,150.138,0,0,0-36.613,7.827c-11.344,4.1-19.709,9.181-24.333,14.169l-.26.114h-5Z" transform="translate(-18.556)" fill="#fff"/>
      <path id="Caminho_12506" data-name="Caminho 12506" d="M-558.52,286.671h2.767V225.9h7.053v-2.066h-7.053v-15.48h-2.767v15.48h-7.053V225.9h7.053Zm-25.469,16.385c11.37,4.109,19.791,9.211,24.506,14.239h4.692c4.714-5.029,13.136-10.13,24.506-14.239a148.376,148.376,0,0,1,33.6-7.537c-21.971-3.329-35.541-20.959-44.384-46.143-8.886-25.307-13-58.236-16.072-91.918-3.075,33.682-7.184,66.611-16.071,91.918-8.843,25.184-22.413,42.814-44.384,46.143A148.371,148.371,0,0,1-583.989,303.056Zm24.091,14.835c-4.623-4.989-12.989-10.07-24.333-14.169a150.1,150.1,0,0,0-36.609-7.827v-.707c23.521-2.019,37.793-19.928,46.963-46.044,9.2-26.2,13.271-60.679,16.385-95.684h.71c3.113,35.005,7.183,69.479,16.384,95.684,9.17,26.116,23.446,44.026,46.967,46.044v.707a150.138,150.138,0,0,0-36.613,7.827c-11.344,4.1-19.709,9.181-24.333,14.169l-.26.114h-5Zm5.218-53.019c7.426.4,14.145,2.572,19.107,6.044,5.468,3.825,8.833,9.21,8.769,15.54s-3.451,11.735-8.916,15.557-13.049,6.071-21.418,6.071c-8.407,0-16.017-2.2-21.5-6.033-5.419-3.79-8.774-9.162-8.837-15.6s3.269-11.786,8.692-15.579c4.971-3.477,11.721-5.62,19.184-6.007v2.775h0v9.088h0V277.8h0v8.109h0v.764h0v1.066h4.916V286.67h0v-.753h0V277.8h0v-1.069h0v-9.083h0Z" transform="translate(-18.556)" fill="#161615"/>
      <path id="Caminho_12507" data-name="Caminho 12507" d="M-512.739,461.531a24.623,24.623,0,0,1-2.356-1.472,32.369,32.369,0,0,1,7.713-2.939,20.294,20.294,0,0,0-5.357,4.411m12.017,3.526a31.089,31.089,0,0,1-11.048-3.02,16.909,16.909,0,0,1,11.048-5.962Zm6.338,0a31.087,31.087,0,0,0,11.048-3.02,16.908,16.908,0,0,0-11.048-5.962Zm12.017-3.526a24.579,24.579,0,0,0,2.356-1.472,32.364,32.364,0,0,0-7.713-2.939A20.289,20.289,0,0,1-482.368,461.531Zm4.885,12.767h7.5c-.155-5.987-4.115-10.707-9.019-13.66a25.14,25.14,0,0,1-2.685,1.73A20.138,20.138,0,0,1-477.483,474.3Zm-16.9,0h15.841a19.072,19.072,0,0,0-4.093-11.422,32.051,32.051,0,0,1-11.748,3.251Zm-6.338,0h-15.841a19.073,19.073,0,0,1,4.093-11.422,32.048,32.048,0,0,0,11.747,3.251Zm-16.9,0h-7.5c.155-5.987,4.115-10.707,9.018-13.66a25.19,25.19,0,0,0,2.685,1.73A20.138,20.138,0,0,0-517.624,474.3Zm-7.5.754h7.5a20.141,20.141,0,0,0,4.572,12.454,25.643,25.643,0,0,0-2.7,1.673C-520.868,486.162-524.964,481.262-525.125,475.053Zm27.2,1.781v6.982a33.039,33.039,0,0,0-14.156,3.193,19.079,19.079,0,0,1-4.479-11.956h15.842v1.781Zm.75,0v6.982a33.039,33.039,0,0,1,14.156,3.193,19.079,19.079,0,0,0,4.479-11.956h-15.842v1.781Zm27.2-1.781h-7.5a20.144,20.144,0,0,1-4.571,12.454,25.676,25.676,0,0,1,2.7,1.673C-474.239,486.162-470.144,481.262-469.983,475.053Zm-27.2,9.829v8.81a18.361,18.361,0,0,0,13.421-5.857A32.119,32.119,0,0,0-497.178,484.882Zm16.79,4.876a24.887,24.887,0,0,0-2.379-1.426,20.27,20.27,0,0,1-5.742,4.382A32.6,32.6,0,0,0-480.389,489.758Zm-17.54-4.876v8.81a18.362,18.362,0,0,1-13.421-5.857A32.119,32.119,0,0,1-497.929,484.882Zm-16.79,4.876a24.926,24.926,0,0,1,2.379-1.426,20.269,20.269,0,0,0,5.742,4.382A32.6,32.6,0,0,1-514.719,489.758Z" transform="translate(-78.139 -188.383)" fill="#950022"/>
      <path id="Caminho_12508" data-name="Caminho 12508" d="M-534.812,630.593a2.641,2.641,0,0,1,.766-1.947,2.619,2.619,0,0,1,1.936-.768,2.6,2.6,0,0,1,1.932.766,2.645,2.645,0,0,1,.761,1.949,2.652,2.652,0,0,1-.761,1.953,2.6,2.6,0,0,1-1.932.766,2.62,2.62,0,0,1-1.936-.768,2.647,2.647,0,0,1-.766-1.951m1.343.009a1.841,1.841,0,0,0,.379,1.207,1.209,1.209,0,0,0,.98.462,1.2,1.2,0,0,0,.97-.464,1.847,1.847,0,0,0,.379-1.206,1.86,1.86,0,0,0-.376-1.209,1.2,1.2,0,0,0-.973-.464,1.208,1.208,0,0,0-.98.462A1.848,1.848,0,0,0-533.468,630.6Zm-5.8,2.483h-1.315V628.1h1.221v.836a2.81,2.81,0,0,1,.889-.732,2.291,2.291,0,0,1,1.047-.241,1.71,1.71,0,0,1,1.285.453,1.84,1.84,0,0,1,.439,1.328v3.337h-1.315v-3.056a.962.962,0,0,0-.227-.694.889.889,0,0,0-.67-.234,1.476,1.476,0,0,0-1,.31,1.124,1.124,0,0,0-.351.891Zm-6.154.238-.089-.387a5.05,5.05,0,0,1-.779.281,2.688,2.688,0,0,1-.673.094,2.456,2.456,0,0,1-1.849-.727,2.612,2.612,0,0,1-.706-1.9,2.745,2.745,0,0,1,.766-1.974,2.464,2.464,0,0,1,1.849-.8,2.75,2.75,0,0,1,.63.077,3.947,3.947,0,0,1,.69.238l1.189-.123v3.477a6.884,6.884,0,0,0,.042.773q.042.376.119.73Zm-.281-1.381v-2.775a3.2,3.2,0,0,0-.512-.221,1.444,1.444,0,0,0-.417-.072,1.4,1.4,0,0,0-1.126.508,2.03,2.03,0,0,0-.428,1.349,1.644,1.644,0,0,0,.375,1.149,1.332,1.332,0,0,0,1.04.415,1.6,1.6,0,0,0,.5-.089A3.079,3.079,0,0,0-545.7,631.942Zm-8.273,1.143h-1.315V628.1h1.221v.836a2.81,2.81,0,0,1,.889-.732,2.29,2.29,0,0,1,1.047-.241,1.71,1.71,0,0,1,1.285.453,1.84,1.84,0,0,1,.439,1.328v3.337h-1.315v-3.056a.964.964,0,0,0-.227-.694.889.889,0,0,0-.67-.234,1.476,1.476,0,0,0-1,.31,1.124,1.124,0,0,0-.351.891Zm-3.619.238-.089-.387a5.052,5.052,0,0,1-.779.281,2.686,2.686,0,0,1-.673.094,2.455,2.455,0,0,1-1.849-.727,2.611,2.611,0,0,1-.706-1.9,2.744,2.744,0,0,1,.766-1.974,2.463,2.463,0,0,1,1.849-.8,2.747,2.747,0,0,1,.63.077,3.95,3.95,0,0,1,.691.238l1.188-.123v3.477a6.884,6.884,0,0,0,.042.773q.042.376.119.73Zm-.281-1.381v-2.775a3.2,3.2,0,0,0-.512-.221,1.444,1.444,0,0,0-.417-.072,1.4,1.4,0,0,0-1.126.508,2.028,2.028,0,0,0-.429,1.349,1.642,1.642,0,0,0,.376,1.149,1.331,1.331,0,0,0,1.039.415,1.6,1.6,0,0,0,.5-.089A3.079,3.079,0,0,0-557.877,631.942Zm-4.071-2.56a4.13,4.13,0,0,0-1.592.2q-.286.178-.287.887v2.615h-1.315V628.1h1.221v.836a2.863,2.863,0,0,1,.873-.725,2.175,2.175,0,0,1,1.006-.237h.094Zm-4.369,2.257-.132,1.2a6.886,6.886,0,0,1-1.073.359,4.116,4.116,0,0,1-.945.117,2.624,2.624,0,0,1-1.938-.768,2.647,2.647,0,0,1-.766-1.951,2.641,2.641,0,0,1,.766-1.947,2.623,2.623,0,0,1,1.938-.768,2.425,2.425,0,0,1,1.711.594,2.048,2.048,0,0,1,.643,1.577c0,.089-.006.236-.017.438,0,.034-.006.057-.006.072l-.126.205-3.588.126a1.453,1.453,0,0,0,.456,1.017,1.578,1.578,0,0,0,1.1.364,2.933,2.933,0,0,0,.875-.145A6.86,6.86,0,0,0-566.318,631.638Zm-3.511-1.483,2.471-.115v-.068a.984.984,0,0,0-.309-.753,1.125,1.125,0,0,0-.8-.291,1.294,1.294,0,0,0-.9.323A1.545,1.545,0,0,0-569.829,630.155Zm-4.42.9V629.2h-.79v-1.1h.79v-1.492l1.338-.238v1.73h1.381v1.1h-1.381v1.862a3.211,3.211,0,0,0,.185,1.3,2.073,2.073,0,0,0,.672.721l-1.481.149a1.327,1.327,0,0,1-.553-.606,3.642,3.642,0,0,1-.16-1.307Zm-6.388-2.953h1.309v3.113a.948.948,0,0,0,.232.69.9.9,0,0,0,.675.238,1.463,1.463,0,0,0,1-.31,1.13,1.13,0,0,0,.349-.891V628.1h1.315v4.981l-1.188.238-.049-1.006a2.822,2.822,0,0,1-.885.724,2.288,2.288,0,0,1-1.04.238,1.7,1.7,0,0,1-1.279-.453,1.841,1.841,0,0,1-.439-1.328Zm-5.42,4.981V625.07h1.4v6.76h3.444v1.255Zm-9.15-2.492a2.641,2.641,0,0,1,.766-1.947,2.618,2.618,0,0,1,1.936-.768,2.6,2.6,0,0,1,1.932.766,2.646,2.646,0,0,1,.76,1.949,2.654,2.654,0,0,1-.76,1.953,2.6,2.6,0,0,1-1.932.766,2.619,2.619,0,0,1-1.936-.768A2.647,2.647,0,0,1-595.207,630.593Zm1.343.009a1.838,1.838,0,0,0,.379,1.207,1.208,1.208,0,0,0,.979.462,1.2,1.2,0,0,0,.97-.464,1.845,1.845,0,0,0,.379-1.206,1.86,1.86,0,0,0-.375-1.209,1.2,1.2,0,0,0-.974-.464,1.207,1.207,0,0,0-.979.462A1.846,1.846,0,0,0-593.864,630.6Zm-2.788-4.885a1.7,1.7,0,0,1-.39.859.916.916,0,0,1-.7.3,1.028,1.028,0,0,1-.164-.014,1.7,1.7,0,0,1-.2-.047l-.53-.145a1.261,1.261,0,0,0-.142-.032.792.792,0,0,0-.128-.011.479.479,0,0,0-.3.094.654.654,0,0,0-.2.275h-.487a1.626,1.626,0,0,1,.375-.84.916.916,0,0,1,.692-.292,1.234,1.234,0,0,1,.176.011.635.635,0,0,1,.149.038l.544.156c.077.021.137.036.181.043a.707.707,0,0,0,.117.011.5.5,0,0,0,.311-.1.66.66,0,0,0,.208-.3Zm-.532,7.605-.089-.387a5.079,5.079,0,0,1-.779.281,2.691,2.691,0,0,1-.674.094,2.455,2.455,0,0,1-1.849-.727,2.612,2.612,0,0,1-.706-1.9,2.745,2.745,0,0,1,.766-1.974,2.464,2.464,0,0,1,1.849-.8,2.745,2.745,0,0,1,.63.077,3.952,3.952,0,0,1,.691.238l1.189-.123v3.477a6.988,6.988,0,0,0,.041.773,7.367,7.367,0,0,0,.119.73Zm-.281-1.381v-2.775a3.19,3.19,0,0,0-.511-.221,1.446,1.446,0,0,0-.417-.072,1.4,1.4,0,0,0-1.126.508,2.029,2.029,0,0,0-.428,1.349,1.642,1.642,0,0,0,.375,1.149,1.331,1.331,0,0,0,1.04.415,1.6,1.6,0,0,0,.5-.089A3.081,3.081,0,0,0-597.465,631.942Zm-8.284-.238a5.836,5.836,0,0,0,.945.425,2.488,2.488,0,0,0,.785.143.842.842,0,0,0,.5-.13.424.424,0,0,0,.179-.362.4.4,0,0,0-.142-.3,2.257,2.257,0,0,0-.583-.317l-.476-.206a2.638,2.638,0,0,1-.983-.655,1.307,1.307,0,0,1-.321-.877,1.4,1.4,0,0,1,.513-1.13,2.053,2.053,0,0,1,1.354-.428,3.474,3.474,0,0,1,.873.115,3.722,3.722,0,0,1,.851.338l-.126,1.166a7.821,7.821,0,0,0-.934-.464,1.8,1.8,0,0,0-.63-.149.659.659,0,0,0-.419.124.39.39,0,0,0-.157.317.419.419,0,0,0,.117.289,1.14,1.14,0,0,0,.37.243l.768.364a2.63,2.63,0,0,1,.977.655,1.313,1.313,0,0,1,.26.838,1.469,1.469,0,0,1-.517,1.181,2.048,2.048,0,0,1-1.374.44,4.591,4.591,0,0,1-.955-.1,4.754,4.754,0,0,1-.925-.3Zm-4.741,0a5.823,5.823,0,0,0,.945.425,2.485,2.485,0,0,0,.785.143.841.841,0,0,0,.5-.13.424.424,0,0,0,.179-.362.4.4,0,0,0-.142-.3,2.259,2.259,0,0,0-.583-.317l-.476-.206a2.641,2.641,0,0,1-.983-.655,1.309,1.309,0,0,1-.32-.877,1.4,1.4,0,0,1,.513-1.13,2.055,2.055,0,0,1,1.355-.428,3.48,3.48,0,0,1,.874.115,3.719,3.719,0,0,1,.851.338l-.126,1.166a7.779,7.779,0,0,0-.934-.464,1.8,1.8,0,0,0-.63-.149.659.659,0,0,0-.419.124.39.39,0,0,0-.157.317.418.418,0,0,0,.117.289,1.138,1.138,0,0,0,.37.243l.768.364a2.631,2.631,0,0,1,.977.655,1.312,1.312,0,0,1,.261.838,1.468,1.468,0,0,1-.517,1.181,2.047,2.047,0,0,1-1.373.44,4.585,4.585,0,0,1-.955-.1,4.757,4.757,0,0,1-.925-.3Zm-1.219,1.381h-1.338V628.1l1.338-.238Zm-1.46-6.826a.783.783,0,0,1,.23-.566.755.755,0,0,1,.56-.236.755.755,0,0,1,.56.236.783.783,0,0,1,.23.566.75.75,0,0,1-.23.553.767.767,0,0,1-.56.226.767.767,0,0,1-.56-.226A.749.749,0,0,1-613.169,626.259Zm-1.977,6.826h-1.338V629.2h-.791v-1.1h.791v-.421a4.156,4.156,0,0,1,.219-1.421,2.9,2.9,0,0,1,.687-1.066l1.813-.238v.37a1.937,1.937,0,0,0-1.053.8,2.863,2.863,0,0,0-.328,1.487v.487h1.381v1.1h-1.381Zm-6.4,0h-1.315V628.1h1.221v.836a2.809,2.809,0,0,1,.889-.732,2.29,2.29,0,0,1,1.047-.241,1.71,1.71,0,0,1,1.285.453,1.841,1.841,0,0,1,.439,1.328v3.337H-619.3v-3.056a.963.963,0,0,0-.227-.694.889.889,0,0,0-.669-.234,1.476,1.476,0,0,0-1,.31,1.125,1.125,0,0,0-.351.891Zm-7.637-2.492a2.64,2.64,0,0,1,.766-1.947,2.618,2.618,0,0,1,1.936-.768,2.6,2.6,0,0,1,1.932.766,2.646,2.646,0,0,1,.76,1.949,2.653,2.653,0,0,1-.76,1.953,2.6,2.6,0,0,1-1.932.766,2.619,2.619,0,0,1-1.936-.768A2.646,2.646,0,0,1-629.187,630.593Zm1.344.009a1.838,1.838,0,0,0,.379,1.207,1.207,1.207,0,0,0,.979.462,1.2,1.2,0,0,0,.97-.464,1.847,1.847,0,0,0,.379-1.206,1.86,1.86,0,0,0-.375-1.209,1.2,1.2,0,0,0-.973-.464,1.207,1.207,0,0,0-.979.462A1.845,1.845,0,0,0-627.843,630.6Zm-2.02,1.964a4.207,4.207,0,0,1-1.151.579,4.005,4.005,0,0,1-1.258.2,3.971,3.971,0,0,1-1.325-.225,3.962,3.962,0,0,1-1.17-.649,4.051,4.051,0,0,1-1.147-1.479,4.565,4.565,0,0,1-.4-1.915,4.255,4.255,0,0,1,1.164-3.06,3.851,3.851,0,0,1,2.909-1.219,3.918,3.918,0,0,1,1.219.188,4.3,4.3,0,0,1,1.136.568l-.143,1.564a3.462,3.462,0,0,0-1.005-.768,2.517,2.517,0,0,0-1.111-.255,2.535,2.535,0,0,0-1.956.832,3.043,3.043,0,0,0-.762,2.137,2.987,2.987,0,0,0,.743,2.087,2.441,2.441,0,0,0,1.892.821,2.858,2.858,0,0,0,1.249-.286,4.427,4.427,0,0,0,1.2-.9Zm-9.855-.928-.132,1.2a6.9,6.9,0,0,1-1.074.359,4.12,4.12,0,0,1-.945.117,2.623,2.623,0,0,1-1.938-.768,2.646,2.646,0,0,1-.766-1.951,2.64,2.64,0,0,1,.766-1.947,2.622,2.622,0,0,1,1.938-.768,2.425,2.425,0,0,1,1.711.594,2.047,2.047,0,0,1,.643,1.577c0,.089-.006.236-.017.438a.708.708,0,0,0-.006.072l-.127.205-3.588.126a1.455,1.455,0,0,0,.457,1.017,1.577,1.577,0,0,0,1.1.364,2.938,2.938,0,0,0,.876-.145A6.89,6.89,0,0,0-639.719,631.638Zm-3.511-1.483,2.472-.115v-.068a.984.984,0,0,0-.31-.753,1.125,1.125,0,0,0-.8-.291,1.3,1.3,0,0,0-.9.323A1.547,1.547,0,0,0-643.23,630.155Zm-3.6,1.8v-2.873a2.65,2.65,0,0,0-.451-.162,1.632,1.632,0,0,0-.411-.053,1.472,1.472,0,0,0-1.172.5,1.98,1.98,0,0,0-.438,1.353,1.719,1.719,0,0,0,.355,1.147,1.209,1.209,0,0,0,.972.417,1.952,1.952,0,0,0,.547-.083A3.176,3.176,0,0,0-646.832,631.951Zm1.32,1.134-1.126.238-.029-.432a3.689,3.689,0,0,1-.783.321,2.839,2.839,0,0,1-.743.1,2.289,2.289,0,0,1-1.755-.755,2.706,2.706,0,0,1-.7-1.915,2.645,2.645,0,0,1,.778-1.951,2.64,2.64,0,0,1,1.949-.779,3.325,3.325,0,0,1,.528.042,4.32,4.32,0,0,1,.561.13V625.2l1.32-.238ZM-536.3,619.754l-.089-.387a5.076,5.076,0,0,1-.779.281,2.685,2.685,0,0,1-.673.094,2.456,2.456,0,0,1-1.849-.726,2.612,2.612,0,0,1-.706-1.9,2.743,2.743,0,0,1,.766-1.974,2.462,2.462,0,0,1,1.849-.8,2.767,2.767,0,0,1,.63.077,3.946,3.946,0,0,1,.69.238l1.189-.122v3.477a6.883,6.883,0,0,0,.042.773,7.366,7.366,0,0,0,.119.73Zm-.281-1.381V615.6a3.23,3.23,0,0,0-.511-.221,1.447,1.447,0,0,0-.417-.072,1.4,1.4,0,0,0-1.126.508,2.028,2.028,0,0,0-.429,1.349,1.641,1.641,0,0,0,.376,1.149,1.331,1.331,0,0,0,1.04.415,1.6,1.6,0,0,0,.5-.089A3.074,3.074,0,0,0-536.58,618.372Zm-4.569.906a3.208,3.208,0,0,1-.819.347,3.44,3.44,0,0,1-.9.117,2.848,2.848,0,0,1-2.054-.755,2.6,2.6,0,0,1-.787-1.966,2.528,2.528,0,0,1,.857-1.934,3.009,3.009,0,0,1,2.117-.791,3.842,3.842,0,0,1,.791.089,6.968,6.968,0,0,1,.917.27l-.143,1.122a5.746,5.746,0,0,0-.792-.279,2.544,2.544,0,0,0-.632-.091,1.768,1.768,0,0,0-1.264.445,1.543,1.543,0,0,0-.472,1.179,1.491,1.491,0,0,0,.481,1.164,1.834,1.834,0,0,0,1.275.434,2.411,2.411,0,0,0,.778-.13,3.548,3.548,0,0,0,.8-.4Zm-5.507.237h-1.338v-4.981l1.338-.238Zm-1.46-6.826a.782.782,0,0,1,.23-.566.753.753,0,0,1,.56-.236.754.754,0,0,1,.561.236.782.782,0,0,1,.23.566.749.749,0,0,1-.23.553.768.768,0,0,1-.561.227.767.767,0,0,1-.56-.227A.75.75,0,0,1-548.116,612.69Zm-1.185,6.826h-1.338v-7.888l1.338-.237Zm-5.411-5.83,1.128-1.925h1.111l-1.575,1.925Zm2.909,4.383-.132,1.2a6.934,6.934,0,0,1-1.074.358,4.12,4.12,0,0,1-.945.117,2.624,2.624,0,0,1-1.938-.768,2.646,2.646,0,0,1-.766-1.951,2.64,2.64,0,0,1,.766-1.947,2.622,2.622,0,0,1,1.938-.768,2.424,2.424,0,0,1,1.711.594,2.046,2.046,0,0,1,.643,1.577c0,.089-.006.236-.017.438,0,.034-.006.057-.006.072l-.126.205-3.588.126a1.457,1.457,0,0,0,.457,1.017,1.579,1.579,0,0,0,1.1.364,2.939,2.939,0,0,0,.875-.145A6.847,6.847,0,0,0-551.8,618.069Zm-3.511-1.483,2.472-.115V616.4a.984.984,0,0,0-.31-.753,1.125,1.125,0,0,0-.8-.29,1.292,1.292,0,0,0-.9.322A1.546,1.546,0,0,0-555.313,616.586Zm-7,3.719a7.252,7.252,0,0,0,1.175.427,4.01,4.01,0,0,0,.992.132,1.434,1.434,0,0,0,.964-.3,1.043,1.043,0,0,0,.345-.834v-.315a5.015,5.015,0,0,1-.721.243,2.615,2.615,0,0,1-.617.083,2.46,2.46,0,0,1-1.849-.726,2.613,2.613,0,0,1-.706-1.9,2.745,2.745,0,0,1,.766-1.974,2.463,2.463,0,0,1,1.849-.8,2.764,2.764,0,0,1,.63.077,3.907,3.907,0,0,1,.692.238l1.187-.122v4.72a4.922,4.922,0,0,1-.075,1.006,1.839,1.839,0,0,1-.251.613,2.094,2.094,0,0,1-.941.768,3.559,3.559,0,0,1-1.445.272,4.552,4.552,0,0,1-1-.108,3.991,3.991,0,0,1-.917-.325Zm3.489-1.932V615.6a2.812,2.812,0,0,0-.523-.221,1.792,1.792,0,0,0-.494-.072,1.406,1.406,0,0,0-1.126.508,2.028,2.028,0,0,0-.428,1.349,1.642,1.642,0,0,0,.376,1.149,1.331,1.331,0,0,0,1.04.415,1.965,1.965,0,0,0,.562-.085A2.806,2.806,0,0,0-558.826,618.372Zm-8.362,1.143H-568.5v-4.981h1.22v.836a2.819,2.819,0,0,1,.889-.732,2.3,2.3,0,0,1,1.047-.241,1.71,1.71,0,0,1,1.285.453,1.839,1.839,0,0,1,.44,1.328v3.337h-1.315v-3.057a.964.964,0,0,0-.226-.694.89.89,0,0,0-.67-.234,1.475,1.475,0,0,0-1,.309,1.124,1.124,0,0,0-.351.891Zm-3.618.238-.089-.387a5.108,5.108,0,0,1-.779.281,2.689,2.689,0,0,1-.674.094,2.457,2.457,0,0,1-1.849-.726,2.613,2.613,0,0,1-.706-1.9,2.745,2.745,0,0,1,.766-1.974,2.463,2.463,0,0,1,1.849-.8,2.764,2.764,0,0,1,.63.077,3.946,3.946,0,0,1,.691.238l1.189-.122v3.477a6.987,6.987,0,0,0,.041.773q.043.377.119.73Zm-.281-1.381V615.6a3.231,3.231,0,0,0-.511-.221,1.447,1.447,0,0,0-.417-.072,1.406,1.406,0,0,0-1.126.508,2.029,2.029,0,0,0-.428,1.349,1.642,1.642,0,0,0,.375,1.149,1.331,1.331,0,0,0,1.04.415,1.6,1.6,0,0,0,.5-.089A3.078,3.078,0,0,0-571.087,618.372Zm-6.515,1.459h-.149l-2.366-5.3h1.415l1.177,2.753,1.287-2.753h1.134Zm-7.7-.315V611.5h4.666v1.232h-3.294v1.975h2.83v1.221h-2.83v2.343h3.349v1.243Zm-5.132.238-.089-.387a5.078,5.078,0,0,1-.779.281,2.684,2.684,0,0,1-.674.094,2.456,2.456,0,0,1-1.849-.726,2.613,2.613,0,0,1-.706-1.9,2.745,2.745,0,0,1,.766-1.974,2.463,2.463,0,0,1,1.849-.8,2.764,2.764,0,0,1,.63.077,3.958,3.958,0,0,1,.691.238l1.189-.122v3.477a6.987,6.987,0,0,0,.041.773q.043.377.119.73Zm-.281-1.381V615.6a3.236,3.236,0,0,0-.512-.221,1.442,1.442,0,0,0-.417-.072,1.406,1.406,0,0,0-1.127.508,2.029,2.029,0,0,0-.428,1.349,1.642,1.642,0,0,0,.375,1.149,1.331,1.331,0,0,0,1.04.415,1.6,1.6,0,0,0,.5-.089A3.078,3.078,0,0,0-590.712,618.372Zm-6.2-5.683a.783.783,0,0,1,.23-.566.754.754,0,0,1,.56-.236.754.754,0,0,1,.561.236.782.782,0,0,1,.23.566.749.749,0,0,1-.23.553.768.768,0,0,1-.561.227.768.768,0,0,1-.56-.227A.75.75,0,0,1-596.913,612.69Zm-.711,9.236a2.861,2.861,0,0,0,.641-.995,3.929,3.929,0,0,0,.193-1.326v-5.069l1.338-.238v5.319a6.857,6.857,0,0,1-.091,1.215,2.891,2.891,0,0,1-.285.845Zm-.351-3.856-.132,1.2a6.912,6.912,0,0,1-1.074.358,4.116,4.116,0,0,1-.945.117,2.624,2.624,0,0,1-1.938-.768,2.647,2.647,0,0,1-.766-1.951,2.641,2.641,0,0,1,.766-1.947,2.623,2.623,0,0,1,1.938-.768,2.425,2.425,0,0,1,1.711.594,2.048,2.048,0,0,1,.643,1.577c0,.089-.006.236-.017.438,0,.034-.006.057-.006.072l-.126.205-3.588.126a1.456,1.456,0,0,0,.456,1.017,1.58,1.58,0,0,0,1.1.364,2.935,2.935,0,0,0,.875-.145A6.835,6.835,0,0,0-597.975,618.069Zm-3.511-1.483,2.471-.115V616.4a.985.985,0,0,0-.309-.753,1.125,1.125,0,0,0-.8-.29,1.294,1.294,0,0,0-.9.322A1.547,1.547,0,0,0-601.486,616.586Zm-1.6-.773a4.135,4.135,0,0,0-1.592.2q-.286.178-.286.887v2.615h-1.316v-4.981h1.221v.836a2.868,2.868,0,0,1,.873-.725,2.176,2.176,0,0,1,1.006-.237h.094Zm-9.224,4.492a7.238,7.238,0,0,0,1.175.427,4.007,4.007,0,0,0,.992.132,1.433,1.433,0,0,0,.964-.3,1.043,1.043,0,0,0,.345-.834v-.315a4.985,4.985,0,0,1-.721.243,2.615,2.615,0,0,1-.617.083,2.46,2.46,0,0,1-1.849-.726,2.613,2.613,0,0,1-.706-1.9,2.744,2.744,0,0,1,.766-1.974,2.462,2.462,0,0,1,1.849-.8,2.769,2.769,0,0,1,.63.077,3.918,3.918,0,0,1,.692.238l1.187-.122v4.72a4.921,4.921,0,0,1-.076,1.006,1.839,1.839,0,0,1-.251.613,2.092,2.092,0,0,1-.941.768,3.557,3.557,0,0,1-1.445.272,4.552,4.552,0,0,1-1-.108,3.981,3.981,0,0,1-.917-.325Zm3.488-1.932V615.6a2.811,2.811,0,0,0-.522-.221,1.8,1.8,0,0,0-.495-.072,1.4,1.4,0,0,0-1.126.508,2.029,2.029,0,0,0-.428,1.349,1.644,1.644,0,0,0,.375,1.149,1.331,1.331,0,0,0,1.04.415,1.966,1.966,0,0,0,.562-.085A2.8,2.8,0,0,0-608.821,618.372Zm-6.565,1.143V611.5h1.415v8.015Z" transform="translate(0 -285.068)" fill="#161615" fill-rule="evenodd"/>
      <path id="Caminho_12509" data-name="Caminho 12509" d="M-294.537,655.461h-1.337v-7.888l1.337-.238Zm-2.645,0h-1.338V650.48l1.338-.238Zm-1.46-6.826a.783.783,0,0,1,.23-.566.755.755,0,0,1,.561-.236.754.754,0,0,1,.56.236.783.783,0,0,1,.23.566.75.75,0,0,1-.23.553.766.766,0,0,1-.56.226.767.767,0,0,1-.561-.226A.749.749,0,0,1-298.642,648.635Zm-4.707,5.445a5.834,5.834,0,0,0,.945.425,2.487,2.487,0,0,0,.785.143.842.842,0,0,0,.5-.13.424.424,0,0,0,.179-.362.4.4,0,0,0-.142-.3,2.257,2.257,0,0,0-.583-.317l-.475-.206a2.634,2.634,0,0,1-.983-.655,1.307,1.307,0,0,1-.321-.877,1.4,1.4,0,0,1,.513-1.13,2.053,2.053,0,0,1,1.354-.428,3.474,3.474,0,0,1,.874.115,3.713,3.713,0,0,1,.851.338l-.126,1.166a7.837,7.837,0,0,0-.934-.464,1.8,1.8,0,0,0-.63-.149.658.658,0,0,0-.419.124.39.39,0,0,0-.157.317.419.419,0,0,0,.117.289,1.136,1.136,0,0,0,.37.243l.768.364a2.631,2.631,0,0,1,.977.655,1.313,1.313,0,0,1,.26.838,1.469,1.469,0,0,1-.517,1.181,2.048,2.048,0,0,1-1.374.44,4.591,4.591,0,0,1-.955-.1,4.763,4.763,0,0,1-.924-.3ZM-305.6,655.7l-.089-.387a5.06,5.06,0,0,1-.779.281,2.688,2.688,0,0,1-.673.094,2.455,2.455,0,0,1-1.849-.727,2.611,2.611,0,0,1-.706-1.9,2.744,2.744,0,0,1,.766-1.974,2.462,2.462,0,0,1,1.849-.8,2.753,2.753,0,0,1,.63.077,3.962,3.962,0,0,1,.691.238l1.188-.123v3.477a6.884,6.884,0,0,0,.042.774,7.383,7.383,0,0,0,.119.73Zm-.281-1.381v-2.775a3.2,3.2,0,0,0-.511-.221,1.449,1.449,0,0,0-.417-.072,1.4,1.4,0,0,0-1.126.508,2.029,2.029,0,0,0-.428,1.349,1.644,1.644,0,0,0,.375,1.149,1.332,1.332,0,0,0,1.04.415,1.6,1.6,0,0,0,.5-.089A3.083,3.083,0,0,0-305.879,654.318Zm-4.071-2.56a4.133,4.133,0,0,0-1.593.2c-.19.119-.286.415-.286.887v2.615h-1.315V650.48h1.221v.836a2.865,2.865,0,0,1,.874-.725,2.175,2.175,0,0,1,1.006-.237h.094Zm-9.6,3.7v-8.015h2.388a3.247,3.247,0,0,1,2,.517,1.8,1.8,0,0,1,.677,1.522,1.691,1.691,0,0,1-.317,1.04,2.023,2.023,0,0,1-.953.658,1.816,1.816,0,0,1,1.068.68,2.04,2.04,0,0,1,.379,1.254,2.08,2.08,0,0,1-.762,1.761,3.777,3.777,0,0,1-2.3.583Zm1.36-4.687h.823a1.708,1.708,0,0,0,1.1-.319,1.049,1.049,0,0,0,.4-.87.918.918,0,0,0-.376-.813,2.1,2.1,0,0,0-1.177-.26h-.768Zm0,3.564h.994a1.659,1.659,0,0,0,1.106-.334,1.171,1.171,0,0,0,.393-.943,1.1,1.1,0,0,0-.391-.9,1.732,1.732,0,0,0-1.119-.317h-.983Z" transform="translate(-206.112 -307.444)" fill="#161615" fill-rule="evenodd"/>
    </g>
  </g>
</svg>
