<svg xmlns="http://www.w3.org/2000/svg" width="15.714" height="18.858" viewBox="0 0 15.714 18.858">
  <g id="bell" transform="translate(0)">
    <g id="Group_3112" data-name="Group 3112" transform="translate(0)">
      <g id="Group_3111" data-name="Group 3111" transform="translate(0)">
        <path id="Path_10" data-name="Path 10" d="M58.334,15.906l-1.349-2.249a6.68,6.68,0,0,1-.952-3.437V8.25A5.507,5.507,0,0,0,52.1,2.982V1.571a1.571,1.571,0,1,0-3.143,0v1.41A5.507,5.507,0,0,0,45.032,8.25v1.97a6.684,6.684,0,0,1-.952,3.436L42.731,15.9a.394.394,0,0,0,.336.6H58a.393.393,0,0,0,.337-.595Z" transform="translate(-42.675)" fill="#131027"/>
      </g>
    </g>
    <g id="Group_3114" data-name="Group 3114" transform="translate(5.383 17.286)">
      <g id="Group_3113" data-name="Group 3113" transform="translate(0)">
        <path id="Path_11" data-name="Path 11" d="M188.815,469.333a2.734,2.734,0,0,0,4.949,0Z" transform="translate(-188.815 -469.333)" fill="#131027"/>
      </g>
    </g>
  </g>
</svg>
