<svg xmlns="http://www.w3.org/2000/svg" width="24" height="33.176" viewBox="0 0 24 33.176">
  <g id="Group_5742" data-name="Group 5742" transform="translate(-8655 5775.176)">
    <g id="Rectangle_84" data-name="Rectangle 84" transform="translate(8655 -5767)" fill="none" stroke="#2851a0" stroke-width="1.5">
      <rect width="24" height="25" rx="10" stroke="none"/>
      <rect x="0.75" y="0.75" width="22.5" height="23.5" rx="9.25" fill="none"/>
    </g>
    <path id="Path_7120" data-name="Path 7120" d="M8662.716-5766.583l-2.66-7.246s4.5-1.192,7.339,0a11.949,11.949,0,0,0,5.595.825l-3.118,6.421" fill="none" stroke="#2851a0" stroke-width="1.5"/>
    <g id="Ellipse_10" data-name="Ellipse 10" transform="translate(8660 -5762)" fill="none" stroke="#ff396f" stroke-width="1.5">
      <circle cx="7.5" cy="7.5" r="7.5" stroke="none"/>
      <circle cx="7.5" cy="7.5" r="6.75" fill="none"/>
    </g>
    <g id="discount_1_" data-name="discount (1)" transform="translate(8662.053 -5760.266)">
      <path id="Path_7124" data-name="Path 7124" d="M175.167,119.841l2.046-6.138a.434.434,0,1,0-.824-.275l-2.046,6.138a.434.434,0,1,0,.823.275Z" transform="translate(-170.039 -110.767)" fill="#ff396f"/>
      <path id="Path_7125" data-name="Path 7125" d="M265.835,191.807a1.3,1.3,0,1,0-1.3-1.3A1.3,1.3,0,0,0,265.835,191.807Zm0-1.736a.434.434,0,1,1-.434.434A.435.435,0,0,1,265.835,190.071Z" transform="translate(-257.64 -184.637)" fill="#ff396f"/>
      <path id="Path_7126" data-name="Path 7126" d="M96.129,189.2a1.3,1.3,0,1,0,1.3,1.3A1.3,1.3,0,0,0,96.129,189.2Zm0,1.736a.434.434,0,1,1,.434-.434A.435.435,0,0,1,96.129,190.939Z" transform="translate(-92.845 -184.637)" fill="#ff396f"/>
    </g>
  </g>
</svg>
