<svg xmlns="http://www.w3.org/2000/svg" width="31.935" height="27.444" viewBox="0 0 31.935 27.444">
  <g id="save" transform="translate(0 -36)">
    <path id="Path_7162" data-name="Path 7162" d="M154.722,40.99a.624.624,0,0,0,.624-.624V36.624a.624.624,0,0,0-.624-.624h-13.1a.624.624,0,0,0-.624.624v3.742a.624.624,0,1,0,1.247,0V37.247H154.1v3.119A.624.624,0,0,0,154.722,40.99Z" transform="translate(-132.206 0)" fill="#ff396f"/>
    <path id="Path_7163" data-name="Path 7163" d="M31.311,114.712H29.128V100.366a.624.624,0,0,0-.624-.624H19.4V96.624A.624.624,0,0,0,18.774,96H13.16a.624.624,0,0,0-.624.624v3.119H3.43a.624.624,0,0,0-.624.624v14.346H.624a.624.624,0,0,0-.624.624A4.371,4.371,0,0,0,4.366,119.7H13.16a.624.624,0,1,0,0-1.247H4.366a3.124,3.124,0,0,1-3.056-2.5H30.624a3.124,3.124,0,0,1-3.056,2.5H18.774a.624.624,0,1,0,0,1.247h8.794a4.371,4.371,0,0,0,4.366-4.366A.624.624,0,0,0,31.311,114.712Zm-18.15-9.98a.624.624,0,0,0,.624-.624V97.247H18.15v6.861a.624.624,0,0,0,.624.624h1.559l-4.366,5.821L11.6,104.732Zm14.72,9.98H4.054V100.99h8.483v2.495H10.354a.624.624,0,0,0-.5,1l5.613,7.485a.624.624,0,0,0,1,0l5.613-7.485a.624.624,0,0,0-.5-1H19.4V100.99H27.88Z" transform="translate(0 -56.258)" fill="#2851a0"/>
    <circle id="Ellipse_16" data-name="Ellipse 16" transform="translate(15.825 63)"/>
  </g>
</svg>
