<svg xmlns="http://www.w3.org/2000/svg" width="30" height="27" viewBox="0 0 30 27">
  <g id="Group_5743" data-name="Group 5743" transform="translate(-8743 5773)">
    <g id="Group_3597" data-name="Group 3597" transform="translate(271)">
      <g id="Rectangle_79" data-name="Rectangle 79" transform="translate(8476 -5763)" fill="none" stroke="#2851a0" stroke-width="1.5">
        <path d="M0,0H26a0,0,0,0,1,0,0V17a0,0,0,0,1,0,0H5a5,5,0,0,1-5-5V0A0,0,0,0,1,0,0Z" stroke="none"/>
        <path d="M1.5.75h23a.75.75,0,0,1,.75.75v14a.75.75,0,0,1-.75.75H5A4.25,4.25,0,0,1,.75,12V1.5A.75.75,0,0,1,1.5.75Z" fill="none"/>
      </g>
      <g id="Rectangle_81" data-name="Rectangle 81" transform="translate(8495 -5758)" fill="none" stroke="#2851a0" stroke-width="1.5">
        <path d="M3.5,0H7A0,0,0,0,1,7,0V7A0,0,0,0,1,7,7H3.5A3.5,3.5,0,0,1,0,3.5v0A3.5,3.5,0,0,1,3.5,0Z" stroke="none"/>
        <path d="M3.5.75H5.615a.635.635,0,0,1,.635.635V5.615a.635.635,0,0,1-.635.635H3.5A2.75,2.75,0,0,1,.75,3.5v0A2.75,2.75,0,0,1,3.5.75Z" fill="none"/>
      </g>
      <g id="Path_7119" data-name="Path 7119" transform="translate(8476 -5769)" fill="none">
        <path d="M3,0H24V7.544H0V3.233A3.123,3.123,0,0,1,3,0Z" stroke="none"/>
        <path d="M 3 1.499996662139893 C 2.17289924621582 1.499996662139893 1.5 2.277566909790039 1.5 3.23332691192627 L 1.5 6.044436931610107 L 22.5 6.044436931610107 L 22.5 1.499996662139893 L 16.52505111694336 1.499996662139893 L 11.52077960968018 1.499996662139893 L 3 1.499996662139893 M 3 -3.337860107421875e-06 L 11.52077960968018 -3.337860107421875e-06 L 16.52505111694336 -3.337860107421875e-06 L 24 -3.337860107421875e-06 L 24 7.544436931610107 L 0 7.544436931610107 L 0 3.23332691192627 C 0 1.447606563568115 1.3431396484375 -3.337860107421875e-06 3 -3.337860107421875e-06 Z" stroke="none" fill="#2851a0"/>
      </g>
    </g>
    <g id="Ellipse_13" data-name="Ellipse 13" transform="translate(8743 -5773)" fill="#fff" stroke="#2851a0" stroke-width="1.5">
      <circle cx="7" cy="7" r="7" stroke="none"/>
      <circle cx="7" cy="7" r="6.25" fill="none"/>
    </g>
    <path id="Path_7122" data-name="Path 7122" d="M8750-5768.44v5.591" fill="none" stroke="#ff396f" stroke-linecap="round" stroke-width="1.5"/>
    <path id="Path_7123" data-name="Path 7123" d="M8750-5768.44v5.591" transform="translate(2984.355 -14515.645) rotate(90)" fill="none" stroke="#ff396f" stroke-linecap="round" stroke-width="1.5"/>
  </g>
</svg>
