<svg xmlns="http://www.w3.org/2000/svg" width="22.095" height="28.213" viewBox="0 0 22.095 28.213">
  <g id="shield_2_" data-name="shield (2)" transform="translate(0.245 0.307)">
    <path id="Path_7164" data-name="Path 7164" d="M21.276,5.589,10.9.061a.515.515,0,0,0-.491,0L.323,5.592a.516.516,0,0,0-.268.453v7.221A14.952,14.952,0,0,0,9.017,26.95l1.4.61a.516.516,0,0,0,.411,0l1.578-.681A14.923,14.923,0,0,0,21.55,13.123V6.045a.517.517,0,0,0-.274-.456Zm-.759,7.534A13.892,13.892,0,0,1,12,25.929l0,0-1.374.593L9.43,26A13.918,13.918,0,0,1,1.088,13.266V6.351L10.662,1.1l9.855,5.251Zm0,0" transform="translate(0 0)" fill="#2851a0" stroke="#2851a0" stroke-width="0.6"/>
    <path id="Path_7165" data-name="Path 7165" d="M80.751,148.195a.517.517,0,0,0-.786.671l2.728,3.195a.516.516,0,0,0,.719.065l6.354-5.17a.516.516,0,1,0-.652-.8l-5.963,4.851Zm0,0" transform="translate(-73.9 -135.264)" fill="#ff396f" stroke="#ff396f" stroke-width="0.6"/>
  </g>
</svg>
